<?xml version="1.0" standalone="no"?>
<!DOCTYPE svg PUBLIC "-//W3C//DTD SVG 20010904//EN"
 "http://www.w3.org/TR/2001/REC-SVG-20010904/DTD/svg10.dtd">
<svg version="1.0" xmlns="http://www.w3.org/2000/svg"
 width="394.000000pt" height="272.000000pt" viewBox="0 0 394.000000 272.000000"
 preserveAspectRatio="xMidYMid meet">
<g transform="translate(0.000000,272.000000) scale(0.100000,-0.100000)"
fill="#000000" stroke="none">
<path d="M1880 2359 c-237 -5 -247 -6 -310 -32 -109 -45 -214 -145 -264 -252
-48 -100 -57 -166 -56 -413 l1 -227 -276 -2 -277 -2 2 -202 c1 -277 14 -325
108 -418 38 -38 80 -67 124 -86 37 -17 68 -33 68 -37 0 -3 -19 -17 -42 -31
-143 -84 -237 -229 -254 -391 l-6 -61 268 3 269 3 -3 238 -3 237 386 3 c311 2
396 5 438 18 171 50 300 179 351 352 11 36 16 94 16 172 l0 116 77 28 c160 57
263 163 314 325 l17 55 206 3 c170 2 208 5 212 17 10 25 -16 186 -41 258 -49
143 -132 245 -238 296 l-62 30 -390 3 c-214 2 -500 0 -635 -3z m537 -30 c-9
-6 -15 -14 -12 -19 3 -5 0 -12 -7 -16 -7 -4 -10 -4 -6 1 4 4 -3 16 -15 26
l-22 18 40 0 c32 0 37 -2 22 -10z m-55 -601 c-1 -321 -7 -607 -12 -635 -26
-146 -135 -267 -290 -324 -51 -19 -85 -23 -167 -24 l-102 0 -4 195 c-3 222 -7
238 -92 343 -81 102 -178 147 -313 147 l-74 0 4 258 c4 233 7 263 27 317 56
154 189 268 341 294 30 5 197 9 370 10 l315 1 -3 -582z m525 568 c131 -35 221
-139 271 -311 12 -39 23 -91 27 -117 l6 -48 -383 0 -383 0 1 238 c1 130 2 240
3 245 2 14 402 8 458 -7z m-469 -515 c-7 -9 -14 -18 -15 -20 -2 -2 -3 8 -3 22
0 20 4 25 15 21 13 -5 13 -9 3 -23z m392 -11 c-18 -15 -26 -17 -31 -8 -11 18
-1 28 28 28 l26 0 -23 -20z m-45 -40 c-34 -134 -184 -282 -318 -314 l-27 -6 0
169 c1 93 3 171 5 173 2 1 80 3 175 3 l171 0 -6 -25z m-1461 -311 c4 -4 -6 -8
-23 -11 -29 -4 -30 -4 -14 14 9 10 19 15 22 11 3 -4 10 -11 15 -14z m-557 -25
c-3 -3 -12 -4 -19 -1 -8 3 -5 6 6 6 11 1 17 -2 13 -5z m1683 -15 c0 -5 -6 -9
-13 -9 -8 0 -14 6 -14 14 0 8 6 12 14 9 7 -3 13 -9 13 -14z m-908 -31 c73 -34
133 -96 172 -178 31 -64 31 -67 34 -248 l4 -183 -354 3 c-345 3 -354 4 -412
27 -75 30 -148 101 -184 179 -26 54 -27 66 -30 245 l-4 188 359 -3 358 -3 57
-27z m202 -154 c3 -8 2 -12 -4 -9 -6 3 -10 10 -10 16 0 14 7 11 14 -7z m586
-278 c0 -2 -8 -10 -17 -17 -16 -13 -17 -12 -4 4 13 16 21 21 21 13z m-542
-179 c8 -10 6 -13 -11 -14 -12 0 -16 1 -9 4 6 3 10 9 6 14 -8 14 2 11 14 -4z
m-680 -32 c13 -4 29 -1 37 5 10 9 15 9 15 1 0 -6 -12 -13 -27 -17 -16 -3 -42
-9 -59 -14 -27 -7 -30 -5 -28 14 1 11 3 22 3 24 1 3 8 2 59 -13z m132 -4 c0
-19 -18 -21 -46 -6 l-29 15 38 0 c20 0 37 -4 37 -9z m-49 -230 c0 -111 -2
-201 -5 -201 -3 0 -96 0 -207 0 l-201 0 7 33 c11 56 74 173 118 220 69 73 155
121 272 152 6 1 11 1 13 0 2 -2 3 -93 3 -204z m-415 -228 c-7 -7 -26 7 -26 19
0 6 6 6 15 -2 9 -7 13 -15 11 -17z"/>
<path d="M1844 2030 c-115 -57 -167 -200 -115 -316 88 -194 363 -188 447 11
18 44 18 133 -1 178 -51 123 -213 185 -331 127z m185 -56 c144 -72 144 -251 0
-324 -119 -61 -261 26 -261 160 0 83 45 149 119 175 56 20 83 18 142 -11z"/>
<path d="M1883 1920 c-97 -59 -76 -199 34 -229 47 -13 96 3 132 45 93 105 -45
258 -166 184z m121 -21 c14 -7 23 -16 20 -21 -3 -4 1 -10 8 -13 12 -5 16 -39
10 -96 -5 -41 -104 -67 -150 -39 -9 5 -13 10 -9 10 4 0 -2 10 -13 23 -17 17
-20 30 -16 60 7 41 40 82 58 71 7 -4 8 -3 4 4 -10 16 54 16 88 1z"/>
<path d="M825 740 c10 -11 20 -20 23 -20 3 0 -3 9 -13 20 -10 11 -20 20 -23
20 -3 0 3 -9 13 -20z"/>
</g>
</svg>
